<svg xmlns="http://www.w3.org/2000/svg" width="1439" height="805" viewBox="0 0 1439 805" fill="none">
   <path d="M-1 35.6414V760.204C59.0919 783.486 98.4286 800.71 164.974 804.539C249.901 809.425 294.215 765.847 379.104 760.204C419.931 757.49 443.003 757.507 483.831 760.204C559.632 765.212 599.618 794.275 675.519 796.715C738.357 798.734 773.949 793.128 835.883 781.067C891.183 770.298 919.193 745.523 975.208 741.514C1034.77 737.252 1126.69 764.116 1126.69 764.116C1126.69 764.116 1238.8 793.79 1310.9 786.718C1362.04 781.701 1394.69 774.863 1439 753.684V0H-1V35.6414Z" fill="#355CDB" />
</svg>