<svg xmlns="http://www.w3.org/2000/svg" width="46" height="45" viewBox="0 0 46 45" fill="none">
  <path d="M12.2584 20.2852C20.2025 25.2276 22.0676 33.1185 22.416 37.9131C24.7206 33.6943 29.689 27.2864 38.9672 26.0819C31.0231 21.1395 29.158 13.2486 28.8096 8.45396C26.505 12.6728 21.5366 19.0807 12.2584 20.2852Z" fill="white"/>
  <path d="M3.73335 6.49672C4.94688 7.48235 5.82111 8.82349 6.23319 10.3317C7.2334 9.13 8.58492 8.27193 10.0979 7.87803C8.88433 6.89239 8.0101 5.55126 7.59802 4.04308C6.59782 5.24475 5.24629 6.10282 3.73335 6.49672Z" fill="white"/>
  <path fill-rule="evenodd" clip-rule="evenodd" d="M41.1916 7.55475C41.3111 7.74062 41.4996 7.87137 41.7156 7.91824C41.9315 7.96511 42.1573 7.92426 42.3431 7.80468C42.529 7.6851 42.6597 7.49658 42.7066 7.28059L43.0601 5.65185C43.107 5.43586 43.0662 5.2101 42.9466 5.02423C42.827 4.83837 42.6385 4.70762 42.4226 4.66074C42.2066 4.61387 41.9809 4.65472 41.795 4.7743C41.6092 4.89388 41.4784 5.0824 41.4315 5.29839L41.078 6.92714C41.0312 7.14312 41.072 7.36888 41.1916 7.55475ZM38.1049 8.84008L39.7335 9.19353C39.9495 9.2404 40.1752 9.19956 40.3611 9.07997C40.5469 8.96039 40.6777 8.77187 40.7245 8.55589C40.7714 8.3399 40.7306 8.11414 40.611 7.92827C40.4915 7.74241 40.303 7.61166 40.087 7.56478L38.4584 7.21133C38.2425 7.16446 38.0167 7.2053 37.8309 7.32489C37.645 7.44447 37.5143 7.63299 37.4674 7.84897C37.4205 8.06496 37.4613 8.29072 37.5809 8.47659C37.7005 8.66245 37.889 8.7932 38.1049 8.84008ZM40.1311 12.441C40.2506 12.6269 40.4391 12.7576 40.6551 12.8045C40.8711 12.8514 41.0968 12.8105 41.2827 12.6909C41.4685 12.5713 41.5993 12.3828 41.6461 12.1668L41.9996 10.5381C42.0465 10.3221 42.0057 10.0963 41.8861 9.91048C41.7666 9.72461 41.5781 9.59386 41.3621 9.54699C41.1461 9.50012 40.9204 9.54097 40.7345 9.66055C40.5487 9.78013 40.4179 9.96865 40.3711 10.1846L40.0176 11.8134C39.9707 12.0294 40.0115 12.2551 40.1311 12.441ZM42.9907 9.90045L44.6193 10.2539C44.8352 10.3008 45.061 10.2599 45.2468 10.1403C45.4327 10.0208 45.5634 9.83224 45.6103 9.61626C45.6572 9.40027 45.6163 9.17451 45.4968 8.98865C45.3772 8.80278 45.1887 8.67203 44.9728 8.62515L43.3442 8.2717C43.1282 8.22483 42.9025 8.26567 42.7166 8.38526C42.5308 8.50484 42.4 8.69336 42.3531 8.90934C42.3063 9.12533 42.3471 9.35109 42.4667 9.53695C42.5862 9.72282 42.7747 9.85357 42.9907 9.90045ZM5.51416 30.51C5.63373 30.6959 5.82222 30.8266 6.03819 30.8735C6.25415 30.9204 6.47989 30.8795 6.66575 30.7599C6.8516 30.6404 6.98235 30.4518 7.02923 30.2358L7.38272 28.6071C7.42959 28.3911 7.38876 28.1654 7.26919 27.9795C7.14963 27.7936 6.96113 27.6629 6.74517 27.616C6.52921 27.5691 6.30347 27.61 6.11761 27.7296C5.93175 27.8491 5.80101 28.0377 5.75413 28.2536L5.40064 29.8824C5.35376 30.0984 5.3946 30.3241 5.51416 30.51ZM2.42752 31.7953L4.05611 32.1488C4.27207 32.1957 4.49781 32.1548 4.68367 32.0352C4.86952 31.9156 5.00027 31.7271 5.04715 31.5111C5.09402 31.2951 5.05319 31.0694 4.93362 30.8835C4.81406 30.6977 4.62556 30.5669 4.4096 30.52L2.78101 30.1666C2.56505 30.1197 2.33931 30.1606 2.15345 30.2801C1.9676 30.3997 1.83685 30.5882 1.78998 30.8042C1.7431 31.0202 1.78393 31.246 1.9035 31.4318C2.02306 31.6177 2.21156 31.7485 2.42752 31.7953ZM4.45369 35.3962C4.57325 35.5821 4.76175 35.7129 4.97771 35.7597C5.19368 35.8066 5.41941 35.7658 5.60527 35.6462C5.79113 35.5266 5.92187 35.3381 5.96875 35.1221L6.32224 33.4933C6.36912 33.2774 6.32828 33.0516 6.20872 32.8657C6.08916 32.6799 5.90066 32.5491 5.68469 32.5022C5.46873 32.4554 5.24299 32.4962 5.05714 32.6158C4.87128 32.7354 4.74053 32.9239 4.69366 33.1399L4.34016 34.7686C4.29329 34.9846 4.33412 35.2104 4.45369 35.3962ZM7.31328 32.8557L8.94187 33.2092C9.15783 33.256 9.38357 33.2152 9.56943 33.0956C9.75528 32.976 9.88603 32.7875 9.93291 32.5715C9.97978 32.3555 9.93895 32.1298 9.81938 31.9439C9.69982 31.758 9.51132 31.6273 9.29536 31.5804L7.66677 31.2269C7.45081 31.1801 7.22507 31.2209 7.03921 31.3405C6.85336 31.4601 6.72261 31.6486 6.67573 31.8646C6.62886 32.0806 6.66969 32.3063 6.78926 32.4922C6.90882 32.6781 7.09732 32.8088 7.31328 32.8557ZM20.8626 42.3915C20.9834 42.564 21.165 42.6844 21.3709 42.7285C21.5762 42.774 21.7912 42.7401 21.9726 42.6336C22.154 42.5272 22.2884 42.356 22.3489 42.1546C22.3919 42.0078 26.7931 27.6846 41.9082 27.5542C42.0976 27.5531 42.2811 27.4874 42.4282 27.368C42.5754 27.2487 42.6775 27.0827 42.7177 26.8976C42.7578 26.7124 42.7337 26.5191 42.6493 26.3494C42.5649 26.1798 42.4251 26.044 42.2532 25.9645C28.581 19.5922 30.4206 5.1795 30.5053 4.56941C30.5346 4.36073 30.4838 4.14868 30.3631 3.97597C30.2424 3.80325 30.0607 3.6827 29.8547 3.63857C29.6492 3.59312 29.4341 3.62711 29.2527 3.73373C29.0712 3.84035 28.9368 4.01169 28.8764 4.21333C28.8335 4.36006 24.4323 18.6833 9.3172 18.8138C9.12774 18.8149 8.94431 18.8805 8.79716 18.9999C8.65001 19.1192 8.54792 19.2852 8.50773 19.4703C8.46755 19.6555 8.49165 19.8488 8.57609 20.0185C8.66052 20.1881 8.80024 20.3239 8.97219 20.4034C22.6444 26.7757 20.8047 41.1884 20.7201 41.7985C20.691 42.0071 20.7419 42.2189 20.8626 42.3915ZM22.416 37.9131C22.0676 33.1185 20.2025 25.2276 12.2584 20.2852C21.5366 19.0807 26.505 12.6728 28.8096 8.45396C29.158 13.2486 31.0231 21.1395 38.9672 26.0819C29.689 27.2864 24.7206 33.6943 22.416 37.9131ZM4.99515 13.3685C5.11604 13.5395 5.29686 13.6587 5.50164 13.7024C5.70552 13.7461 5.9184 13.7118 6.09822 13.6062C6.27805 13.5006 6.41176 13.3314 6.47295 13.1321C6.94061 11.9126 7.78972 10.8768 8.89375 10.1791C9.99779 9.48136 11.2977 9.15902 12.5997 9.2601C12.7926 9.26366 12.9808 9.20016 13.1321 9.08045C13.2834 8.96073 13.3885 8.79221 13.4294 8.60364C13.4703 8.41508 13.4446 8.21816 13.3565 8.04648C13.2684 7.87481 13.1235 7.73903 12.9465 7.6623C11.7157 7.22044 10.6624 6.3896 9.94601 5.29555C9.2296 4.20151 8.88909 2.90381 8.97602 1.5989C9.00452 1.391 8.95355 1.18 8.83328 1.00805C8.713 0.836102 8.53229 0.715867 8.32724 0.671364C8.12218 0.62686 7.90789 0.661366 7.72716 0.767986C7.54643 0.874606 7.41257 1.04549 7.35232 1.24651C6.88466 2.466 6.03555 3.50177 4.93152 4.19949C3.82748 4.89721 2.5276 5.21955 1.22555 5.11847C1.03265 5.11491 0.844489 5.17841 0.693176 5.29813C0.541863 5.41785 0.436778 5.58637 0.395853 5.77493C0.354928 5.9635 0.380701 6.16042 0.468773 6.33209C0.556844 6.50376 0.701756 6.63955 0.878779 6.71627C2.10954 7.15814 3.16285 7.98897 3.87926 9.08302C4.59567 10.1771 4.93618 11.4748 4.84925 12.7797C4.82218 12.9873 4.87427 13.1975 4.99515 13.3685ZM6.23319 10.3317C5.82111 8.82349 4.94688 7.48235 3.73335 6.49672C5.24629 6.10282 6.59782 5.24475 7.59802 4.04308C8.0101 5.55126 8.88433 6.89239 10.0979 7.87803C8.58492 8.27193 7.2334 9.13 6.23319 10.3317Z" fill="white"/>
  <path fill-rule="evenodd" clip-rule="evenodd" d="M36.3816 44.2809C36.1769 44.2372 35.9961 44.118 35.8752 43.947C35.7543 43.7761 35.7022 43.5658 35.7293 43.3582C35.816 42.0533 35.4755 40.7557 34.7591 39.6617C34.0427 38.5676 32.9895 37.7368 31.7588 37.2948C31.5818 37.2181 31.4369 37.0823 31.3488 36.9106C31.2607 36.7389 31.2349 36.542 31.2759 36.3534C31.3168 36.1649 31.4219 35.9964 31.5732 35.8766C31.7245 35.7569 31.9127 35.6934 32.1056 35.697C33.4076 35.7982 34.7076 35.4759 35.8116 34.7782C36.9157 34.0804 37.7648 33.0446 38.2323 31.825C38.2926 31.624 38.4264 31.4531 38.6072 31.3465C38.7879 31.2399 39.0022 31.2054 39.2072 31.2499C39.4123 31.2944 39.593 31.4146 39.7133 31.5866C39.8336 31.7585 39.8845 31.9695 39.856 32.1774C39.7692 33.4823 40.1098 34.7799 40.8262 35.874C41.5426 36.968 42.5958 37.7988 43.8265 38.2408C44.0035 38.3175 44.1484 38.4533 44.2365 38.625C44.3246 38.7967 44.3503 38.9936 44.3094 39.1822C44.2685 39.3707 44.1634 39.5392 44.0121 39.659C43.8608 39.7787 43.6726 39.8422 43.4797 39.8386C42.1776 39.7374 40.8777 40.0597 39.7736 40.7574C38.6696 41.4552 37.8205 42.491 37.353 43.7106C37.2918 43.9099 37.1581 44.0791 36.9782 44.1847C36.7984 44.2903 36.5855 44.3246 36.3816 44.2809ZM37.1132 40.9102C36.7011 39.402 35.8269 38.0609 34.6134 37.0752C36.1263 36.6813 37.4778 35.8233 38.478 34.6216C38.8901 36.1298 39.7643 37.4709 40.9779 38.4565C39.4649 38.8504 38.1134 39.7085 37.1132 40.9102Z" fill="white"/>
  <path d="M34.6134 37.0752C35.8269 38.0609 36.7011 39.402 37.1132 40.9102C38.1134 39.7085 39.4649 38.8504 40.9779 38.4565C39.7643 37.4709 38.8901 36.1298 38.478 34.6216C37.4778 35.8233 36.1263 36.6813 34.6134 37.0752Z" fill="white"/>
</svg>